<mxfile host="app.diagrams.net" modified="2021-03-26T12:52:46.673Z" agent="5.0 (Macintosh; Intel Mac OS X 11_2_3) AppleWebKit/537.36 (KHTML, like Gecko) Chrome/89.0.4389.90 Safari/537.36" etag="-K0nAOwY37Cx0pwEYV8F" version="14.5.1" type="github">
  <diagram id="_J9LoODiADFo5gMvbO7-" name="Page-1">
    <mxGraphModel dx="1678" dy="826" grid="1" gridSize="10" guides="1" tooltips="1" connect="1" arrows="1" fold="1" page="1" pageScale="1" pageWidth="827" pageHeight="1169" math="0" shadow="0">
      <root>
        <mxCell id="0" />
        <mxCell id="1" parent="0" />
        <mxCell id="ueBFUlql__zcKDbDiL_w-36" value="" style="whiteSpace=wrap;html=1;aspect=fixed;" vertex="1" parent="1">
          <mxGeometry x="460" y="340" width="340" height="340" as="geometry" />
        </mxCell>
        <mxCell id="ueBFUlql__zcKDbDiL_w-8" value="" style="edgeStyle=orthogonalEdgeStyle;rounded=0;orthogonalLoop=1;jettySize=auto;html=1;" edge="1" parent="1" source="ueBFUlql__zcKDbDiL_w-1" target="ueBFUlql__zcKDbDiL_w-7">
          <mxGeometry relative="1" as="geometry" />
        </mxCell>
        <mxCell id="ueBFUlql__zcKDbDiL_w-25" value="&lt;br&gt;spec.volumes[0]" style="edgeLabel;html=1;align=center;verticalAlign=top;resizable=0;points=[];" vertex="1" connectable="0" parent="ueBFUlql__zcKDbDiL_w-8">
          <mxGeometry x="-0.0769" y="-1" relative="1" as="geometry">
            <mxPoint x="-1" y="1" as="offset" />
          </mxGeometry>
        </mxCell>
        <mxCell id="ueBFUlql__zcKDbDiL_w-1" value="pod" style="whiteSpace=wrap;html=1;aspect=fixed;verticalAlign=top;" vertex="1" parent="1">
          <mxGeometry x="30" y="70" width="260" height="260" as="geometry" />
        </mxCell>
        <mxCell id="ueBFUlql__zcKDbDiL_w-60" style="edgeStyle=orthogonalEdgeStyle;curved=1;rounded=0;orthogonalLoop=1;jettySize=auto;html=1;exitX=0.5;exitY=1;exitDx=0;exitDy=0;exitPerimeter=0;fontSize=10;fontColor=#FF5005;" edge="1" parent="1" source="ueBFUlql__zcKDbDiL_w-2" target="ueBFUlql__zcKDbDiL_w-53">
          <mxGeometry relative="1" as="geometry" />
        </mxCell>
        <mxCell id="ueBFUlql__zcKDbDiL_w-61" value="&lt;font color=&quot;#000000&quot;&gt;spec.volumeMounts[0]&lt;br&gt;&lt;/font&gt;" style="edgeLabel;html=1;align=center;verticalAlign=middle;resizable=0;points=[];fontSize=10;fontColor=#FF5005;" vertex="1" connectable="0" parent="ueBFUlql__zcKDbDiL_w-60">
          <mxGeometry x="0.0182" relative="1" as="geometry">
            <mxPoint as="offset" />
          </mxGeometry>
        </mxCell>
        <mxCell id="ueBFUlql__zcKDbDiL_w-2" value="containers" style="whiteSpace=wrap;html=1;shape=mxgraph.basic.isocube;isoAngle=15;verticalAlign=top;horizontal=0;" vertex="1" parent="1">
          <mxGeometry x="50" y="117" width="120" height="123" as="geometry" />
        </mxCell>
        <mxCell id="ueBFUlql__zcKDbDiL_w-3" value="" style="whiteSpace=wrap;html=1;shape=mxgraph.basic.isocube;isoAngle=15;" vertex="1" parent="1">
          <mxGeometry x="150" y="120" width="120" height="120" as="geometry" />
        </mxCell>
        <mxCell id="ueBFUlql__zcKDbDiL_w-27" value="" style="edgeStyle=orthogonalEdgeStyle;rounded=0;orthogonalLoop=1;jettySize=auto;html=1;" edge="1" parent="1" source="ueBFUlql__zcKDbDiL_w-7" target="ueBFUlql__zcKDbDiL_w-26">
          <mxGeometry relative="1" as="geometry" />
        </mxCell>
        <mxCell id="ueBFUlql__zcKDbDiL_w-29" value="" style="edgeStyle=orthogonalEdgeStyle;rounded=0;orthogonalLoop=1;jettySize=auto;html=1;" edge="1" parent="1" source="ueBFUlql__zcKDbDiL_w-7" target="ueBFUlql__zcKDbDiL_w-28">
          <mxGeometry relative="1" as="geometry" />
        </mxCell>
        <mxCell id="ueBFUlql__zcKDbDiL_w-40" value="storageClassName" style="edgeLabel;html=1;align=center;verticalAlign=middle;resizable=0;points=[];" vertex="1" connectable="0" parent="ueBFUlql__zcKDbDiL_w-29">
          <mxGeometry x="0.437" y="-2" relative="1" as="geometry">
            <mxPoint y="14.5" as="offset" />
          </mxGeometry>
        </mxCell>
        <mxCell id="ueBFUlql__zcKDbDiL_w-7" value="persistent volume claim (pvc)" style="whiteSpace=wrap;html=1;aspect=fixed;verticalAlign=top;" vertex="1" parent="1">
          <mxGeometry x="500" y="57" width="240" height="240" as="geometry" />
        </mxCell>
        <UserObject label="accessModes" placeholders="1" name="Variable" id="ueBFUlql__zcKDbDiL_w-9">
          <mxCell style="text;html=1;strokeColor=none;fillColor=none;align=center;verticalAlign=middle;whiteSpace=wrap;overflow=hidden;" vertex="1" parent="1">
            <mxGeometry x="510" y="120" width="80" height="20" as="geometry" />
          </mxCell>
        </UserObject>
        <UserObject label="resources.request.storage: 500Mi" placeholders="1" name="Variable" id="ueBFUlql__zcKDbDiL_w-10">
          <mxCell style="text;html=1;strokeColor=none;fillColor=none;align=center;verticalAlign=middle;whiteSpace=wrap;overflow=hidden;" vertex="1" parent="1">
            <mxGeometry x="510" y="240" width="200" height="20" as="geometry" />
          </mxCell>
        </UserObject>
        <mxCell id="ueBFUlql__zcKDbDiL_w-11" value="" style="shape=table;html=1;whiteSpace=wrap;startSize=0;container=1;collapsible=0;childLayout=tableLayout;" vertex="1" parent="1">
          <mxGeometry x="540" y="150" width="180" height="80" as="geometry" />
        </mxCell>
        <mxCell id="ueBFUlql__zcKDbDiL_w-12" value="" style="shape=partialRectangle;html=1;whiteSpace=wrap;collapsible=0;dropTarget=0;pointerEvents=0;fillColor=none;top=0;left=0;bottom=0;right=0;points=[[0,0.5],[1,0.5]];portConstraint=eastwest;" vertex="1" parent="ueBFUlql__zcKDbDiL_w-11">
          <mxGeometry width="180" height="20" as="geometry" />
        </mxCell>
        <mxCell id="ueBFUlql__zcKDbDiL_w-13" value="RWO" style="shape=partialRectangle;html=1;whiteSpace=wrap;connectable=0;fillColor=none;top=0;left=0;bottom=0;right=0;overflow=hidden;" vertex="1" parent="ueBFUlql__zcKDbDiL_w-12">
          <mxGeometry width="60" height="20" as="geometry" />
        </mxCell>
        <mxCell id="ueBFUlql__zcKDbDiL_w-14" value="ReadWriteOnce" style="shape=partialRectangle;html=1;whiteSpace=wrap;connectable=0;fillColor=none;top=0;left=0;bottom=0;right=0;overflow=hidden;" vertex="1" parent="ueBFUlql__zcKDbDiL_w-12">
          <mxGeometry x="60" width="101" height="20" as="geometry" />
        </mxCell>
        <mxCell id="ueBFUlql__zcKDbDiL_w-15" value="" style="shape=partialRectangle;html=1;whiteSpace=wrap;connectable=0;fillColor=none;top=0;left=0;bottom=0;right=0;overflow=hidden;" vertex="1" parent="ueBFUlql__zcKDbDiL_w-12">
          <mxGeometry x="161" width="19" height="20" as="geometry" />
        </mxCell>
        <mxCell id="ueBFUlql__zcKDbDiL_w-16" value="" style="shape=partialRectangle;html=1;whiteSpace=wrap;collapsible=0;dropTarget=0;pointerEvents=0;fillColor=none;top=0;left=0;bottom=0;right=0;points=[[0,0.5],[1,0.5]];portConstraint=eastwest;" vertex="1" parent="ueBFUlql__zcKDbDiL_w-11">
          <mxGeometry y="20" width="180" height="33" as="geometry" />
        </mxCell>
        <mxCell id="ueBFUlql__zcKDbDiL_w-17" value="ROX" style="shape=partialRectangle;html=1;whiteSpace=wrap;connectable=0;fillColor=none;top=0;left=0;bottom=0;right=0;overflow=hidden;" vertex="1" parent="ueBFUlql__zcKDbDiL_w-16">
          <mxGeometry width="60" height="33" as="geometry" />
        </mxCell>
        <mxCell id="ueBFUlql__zcKDbDiL_w-18" value="ReadOnlyMany" style="shape=partialRectangle;html=1;whiteSpace=wrap;connectable=0;fillColor=none;top=0;left=0;bottom=0;right=0;overflow=hidden;" vertex="1" parent="ueBFUlql__zcKDbDiL_w-16">
          <mxGeometry x="60" width="101" height="33" as="geometry" />
        </mxCell>
        <mxCell id="ueBFUlql__zcKDbDiL_w-19" value="" style="shape=partialRectangle;html=1;whiteSpace=wrap;connectable=0;fillColor=none;top=0;left=0;bottom=0;right=0;overflow=hidden;" vertex="1" parent="ueBFUlql__zcKDbDiL_w-16">
          <mxGeometry x="161" width="19" height="33" as="geometry" />
        </mxCell>
        <mxCell id="ueBFUlql__zcKDbDiL_w-20" value="" style="shape=partialRectangle;html=1;whiteSpace=wrap;collapsible=0;dropTarget=0;pointerEvents=0;fillColor=none;top=0;left=0;bottom=0;right=0;points=[[0,0.5],[1,0.5]];portConstraint=eastwest;" vertex="1" parent="ueBFUlql__zcKDbDiL_w-11">
          <mxGeometry y="53" width="180" height="27" as="geometry" />
        </mxCell>
        <mxCell id="ueBFUlql__zcKDbDiL_w-21" value="RWX" style="shape=partialRectangle;html=1;whiteSpace=wrap;connectable=0;fillColor=none;top=0;left=0;bottom=0;right=0;overflow=hidden;" vertex="1" parent="ueBFUlql__zcKDbDiL_w-20">
          <mxGeometry width="60" height="27" as="geometry" />
        </mxCell>
        <mxCell id="ueBFUlql__zcKDbDiL_w-22" value="ReadWriteMany" style="shape=partialRectangle;html=1;whiteSpace=wrap;connectable=0;fillColor=none;top=0;left=0;bottom=0;right=0;overflow=hidden;" vertex="1" parent="ueBFUlql__zcKDbDiL_w-20">
          <mxGeometry x="60" width="101" height="27" as="geometry" />
        </mxCell>
        <mxCell id="ueBFUlql__zcKDbDiL_w-23" value="" style="shape=partialRectangle;html=1;whiteSpace=wrap;connectable=0;fillColor=none;top=0;left=0;bottom=0;right=0;overflow=hidden;" vertex="1" parent="ueBFUlql__zcKDbDiL_w-20">
          <mxGeometry x="161" width="19" height="27" as="geometry" />
        </mxCell>
        <mxCell id="ueBFUlql__zcKDbDiL_w-31" value="manual provisioning" style="edgeStyle=orthogonalEdgeStyle;rounded=0;orthogonalLoop=1;jettySize=auto;html=1;" edge="1" parent="1" source="ueBFUlql__zcKDbDiL_w-26" target="ueBFUlql__zcKDbDiL_w-30">
          <mxGeometry relative="1" as="geometry" />
        </mxCell>
        <mxCell id="ueBFUlql__zcKDbDiL_w-26" value="PersistentVolume (PV)" style="shape=cylinder;whiteSpace=wrap;html=1;boundedLbl=1;backgroundOutline=1;verticalAlign=top;" vertex="1" parent="1">
          <mxGeometry x="480" y="390" width="100" height="100" as="geometry" />
        </mxCell>
        <mxCell id="ueBFUlql__zcKDbDiL_w-33" value="dynamic prov." style="edgeStyle=orthogonalEdgeStyle;rounded=0;orthogonalLoop=1;jettySize=auto;html=1;" edge="1" parent="1" source="ueBFUlql__zcKDbDiL_w-28" target="ueBFUlql__zcKDbDiL_w-32">
          <mxGeometry relative="1" as="geometry" />
        </mxCell>
        <mxCell id="ueBFUlql__zcKDbDiL_w-28" value="StorageClass (SC)" style="shape=cylinder;whiteSpace=wrap;html=1;boundedLbl=1;backgroundOutline=1;verticalAlign=top;" vertex="1" parent="1">
          <mxGeometry x="660" y="390" width="90" height="100" as="geometry" />
        </mxCell>
        <mxCell id="ueBFUlql__zcKDbDiL_w-30" value="cloud storage" style="aspect=fixed;perimeter=ellipsePerimeter;html=1;align=center;shadow=0;dashed=0;spacingTop=3;image;image=img/lib/active_directory/internet_cloud.svg;" vertex="1" parent="1">
          <mxGeometry x="485" y="585" width="90" height="56.7" as="geometry" />
        </mxCell>
        <mxCell id="ueBFUlql__zcKDbDiL_w-32" value="cloud storage" style="aspect=fixed;perimeter=ellipsePerimeter;html=1;align=center;shadow=0;dashed=0;spacingTop=3;image;image=img/lib/active_directory/internet_cloud.svg;" vertex="1" parent="1">
          <mxGeometry x="660" y="585" width="90" height="56.7" as="geometry" />
        </mxCell>
        <mxCell id="ueBFUlql__zcKDbDiL_w-34" value="admin" style="image;html=1;image=img/lib/clip_art/people/Scientist_Man_128x128.png" vertex="1" parent="1">
          <mxGeometry x="260" y="480" width="80" height="80" as="geometry" />
        </mxCell>
        <mxCell id="ueBFUlql__zcKDbDiL_w-37" value="" style="curved=1;endArrow=classic;html=1;" edge="1" parent="1" source="ueBFUlql__zcKDbDiL_w-34" target="ueBFUlql__zcKDbDiL_w-36">
          <mxGeometry width="50" height="50" relative="1" as="geometry">
            <mxPoint x="390" y="540" as="sourcePoint" />
            <mxPoint x="450" y="510" as="targetPoint" />
            <Array as="points">
              <mxPoint x="440" y="540" />
              <mxPoint x="390" y="490" />
            </Array>
          </mxGeometry>
        </mxCell>
        <mxCell id="ueBFUlql__zcKDbDiL_w-38" value="sets up" style="edgeLabel;html=1;align=center;verticalAlign=middle;resizable=0;points=[];" vertex="1" connectable="0" parent="ueBFUlql__zcKDbDiL_w-37">
          <mxGeometry x="-0.6109" y="1" relative="1" as="geometry">
            <mxPoint as="offset" />
          </mxGeometry>
        </mxCell>
        <mxCell id="ueBFUlql__zcKDbDiL_w-48" style="edgeStyle=orthogonalEdgeStyle;curved=1;rounded=0;orthogonalLoop=1;jettySize=auto;html=1;entryX=0.481;entryY=0.003;entryDx=0;entryDy=0;entryPerimeter=0;" edge="1" parent="1" source="ueBFUlql__zcKDbDiL_w-44" target="ueBFUlql__zcKDbDiL_w-7">
          <mxGeometry relative="1" as="geometry" />
        </mxCell>
        <mxCell id="ueBFUlql__zcKDbDiL_w-49" value="asks" style="edgeLabel;html=1;align=center;verticalAlign=middle;resizable=0;points=[];" vertex="1" connectable="0" parent="ueBFUlql__zcKDbDiL_w-48">
          <mxGeometry x="-0.2527" y="-3" relative="1" as="geometry">
            <mxPoint as="offset" />
          </mxGeometry>
        </mxCell>
        <mxCell id="ueBFUlql__zcKDbDiL_w-44" value="dev" style="image;html=1;image=img/lib/clip_art/people/Construction_Worker_Man_128x128.png" vertex="1" parent="1">
          <mxGeometry x="374" width="80" height="80" as="geometry" />
        </mxCell>
        <mxCell id="ueBFUlql__zcKDbDiL_w-51" value="hides actual volume implementation" style="text;html=1;align=center;verticalAlign=middle;resizable=0;points=[];autosize=1;fontSize=10;" vertex="1" parent="1">
          <mxGeometry x="535" y="80" width="170" height="20" as="geometry" />
        </mxCell>
        <mxCell id="ueBFUlql__zcKDbDiL_w-56" style="edgeStyle=orthogonalEdgeStyle;curved=1;rounded=0;orthogonalLoop=1;jettySize=auto;html=1;fontSize=10;" edge="1" parent="1" source="ueBFUlql__zcKDbDiL_w-52">
          <mxGeometry relative="1" as="geometry">
            <mxPoint x="400" y="240" as="targetPoint" />
          </mxGeometry>
        </mxCell>
        <mxCell id="ueBFUlql__zcKDbDiL_w-52" value="name: &lt;font color=&quot;#66cc00&quot;&gt;vol1&lt;/font&gt;&lt;br&gt;persistentVolumeClaim:&lt;br&gt;&amp;nbsp; &amp;nbsp; claimName: &lt;font color=&quot;#ff0000&quot;&gt;claim1&lt;/font&gt;" style="text;html=1;align=left;verticalAlign=middle;resizable=0;points=[];autosize=1;fontSize=10;" vertex="1" parent="1">
          <mxGeometry x="340" y="270" width="120" height="40" as="geometry" />
        </mxCell>
        <mxCell id="ueBFUlql__zcKDbDiL_w-53" value="name: &lt;font color=&quot;#97d077&quot;&gt;vol1&lt;/font&gt;&lt;br&gt;&lt;div&gt;&lt;span&gt;mountPath: /var/www/stg&lt;/span&gt;&lt;/div&gt;" style="text;html=1;align=left;verticalAlign=middle;resizable=0;points=[];autosize=1;fontSize=10;" vertex="1" parent="1">
          <mxGeometry x="100" y="290" width="130" height="30" as="geometry" />
        </mxCell>
        <mxCell id="ueBFUlql__zcKDbDiL_w-57" value="metadata.name = claim1" style="text;html=1;align=center;verticalAlign=middle;resizable=0;points=[];autosize=1;fontSize=10;fontColor=#FF5005;" vertex="1" parent="1">
          <mxGeometry x="500" y="100" width="130" height="20" as="geometry" />
        </mxCell>
      </root>
    </mxGraphModel>
  </diagram>
</mxfile>
